<svg width="292" height="56" viewBox="0 0 292 56" fill="none" xmlns="http://www.w3.org/2000/svg">
<path d="M1.36728 12.8334L1.36697 12.8334L1.36823 12.8193L2.42834 0.969717L2.45615 0.659136L2.76797 0.660158C13.7283 0.696085 30.6981 1.25102 43.6255 2.71985C50.0794 3.45315 55.5631 4.4179 58.7848 5.67435C59.5929 5.98949 60.2725 6.32811 60.7939 6.69462C61.312 7.05873 61.7016 7.46976 61.8844 7.93966C62.074 8.4272 62.0238 8.93345 61.7483 9.43094C61.4801 9.91501 61.0003 10.3906 60.3265 10.8652C59.5284 11.4274 59.1907 11.9021 59.1241 12.275C59.064 12.6116 59.2106 12.9764 59.7135 13.3832C60.2182 13.7914 61.0243 14.1892 62.1183 14.5664C63.2065 14.9417 64.5554 15.2888 66.1264 15.6068C72.4156 16.8801 82.1504 17.6673 92.6371 18.0038C103.119 18.3402 114.332 18.2257 123.569 17.7012C128.188 17.4389 132.309 17.0744 135.594 16.6133C138.896 16.1499 141.31 15.5946 142.549 14.9699C145.248 13.6097 149.389 13.6619 154.228 14.5009C159.089 15.3436 164.736 16.9962 170.505 18.9233C175.102 20.4591 179.787 22.1726 184.22 23.7942C185.351 24.2079 186.466 24.6155 187.558 25.0127C192.941 26.9696 197.783 28.6701 201.445 29.5943C216.046 33.2799 229.969 28.6412 244.091 21.9147C246.997 20.5304 250.724 20.2187 254.817 20.6031C258.914 20.9881 263.413 22.0744 267.885 23.5208C276.83 26.4135 285.716 30.7602 291.169 33.884L291.428 34.0323L291.314 34.3083L286.385 46.2767L285.448 54.0407L285.386 54.5497L284.942 54.2949C279.519 51.1886 270.677 46.8636 261.786 43.9886C257.341 42.5511 252.895 41.4797 248.864 41.101C244.827 40.7218 241.242 41.0407 238.494 42.3495C224.346 49.0885 210.235 53.8217 195.389 50.0744C193.377 49.5666 190.912 48.9112 188.129 48.1712C180.706 46.1975 171.017 43.6214 161.611 41.6346C155.145 40.2691 148.827 39.1851 143.483 38.7677C140.812 38.559 138.391 38.5175 136.322 38.6887C134.249 38.8602 132.551 39.2435 131.311 39.8685C129.965 40.5473 127.486 41.1645 124.251 41.7154C121.002 42.2686 116.95 42.7611 112.426 43.1756C103.377 44.0046 92.4236 44.5235 82.204 44.5908C71.9895 44.6582 62.4878 44.2748 56.3502 43.2939C54.8145 43.0485 53.4819 42.7645 52.3976 42.4383C51.3199 42.114 50.4597 41.7401 49.8905 41.301C49.3154 40.8573 48.98 40.2947 49.1272 39.629C49.2634 39.0126 49.7973 38.4192 50.6296 37.8329C51.9203 36.9237 52.3164 36.1753 52.2485 35.5883C52.1785 34.9827 51.5974 34.3333 50.3737 33.6794C47.9618 32.3906 43.5145 31.3274 37.9997 30.4859C26.9972 28.8071 11.9441 28.0373 0.998871 28.0014L0.643616 28.0003L0.660553 27.6454L1.36728 12.8334Z" fill="#6DDAFC" stroke="black" stroke-width="0.679688"/>
</svg>
