<svg width="292" height="56" viewBox="0 0 292 56" fill="none" xmlns="http://www.w3.org/2000/svg">
<path d="M290.633 12.8334L290.633 12.8334L290.632 12.8193L289.572 0.969717L289.544 0.659136L289.232 0.660158C278.272 0.696085 261.302 1.25102 248.375 2.71985C241.921 3.45315 236.437 4.4179 233.215 5.67435C232.407 5.98949 231.727 6.32811 231.206 6.69462C230.688 7.05873 230.298 7.46976 230.116 7.93966C229.926 8.4272 229.976 8.93345 230.252 9.43094C230.52 9.91501 231 10.3906 231.674 10.8652C232.472 11.4274 232.809 11.9021 232.876 12.275C232.936 12.6116 232.789 12.9764 232.287 13.3832C231.782 13.7914 230.976 14.1892 229.882 14.5664C228.793 14.9417 227.445 15.2888 225.874 15.6068C219.584 16.8801 209.85 17.6673 199.363 18.0038C188.881 18.3402 177.668 18.2257 168.431 17.7012C163.812 17.4389 159.691 17.0744 156.406 16.6133C153.104 16.1499 150.69 15.5946 149.451 14.9699C146.752 13.6097 142.611 13.6619 137.772 14.5009C132.911 15.3436 127.264 16.9962 121.495 18.9233C116.898 20.4591 112.213 22.1726 107.78 23.7942C106.649 24.2079 105.534 24.6155 104.442 25.0127C99.0593 26.9696 94.2167 28.6701 90.5553 29.5943C75.9535 33.2799 62.0306 28.6412 47.9089 21.9147C45.0027 20.5304 41.2755 20.2187 37.1832 20.6031C33.0855 20.9881 28.5874 22.0744 24.1149 23.5208C15.1697 26.4135 6.28429 30.7602 0.83108 33.884L0.572101 34.0323L0.685767 34.3083L5.61534 46.2767L6.55212 54.0407L6.61354 54.5497L7.05844 54.2949C12.4812 51.1886 21.3232 46.8636 30.2135 43.9886C34.6587 42.5511 39.1053 41.4797 43.1363 41.101C47.1728 40.7218 50.7584 41.0407 53.5062 42.3495C67.6542 49.0885 81.7654 53.8217 96.6112 50.0744C98.6231 49.5666 101.088 48.9112 103.871 48.1712C111.294 46.1975 120.983 43.6214 130.389 41.6346C136.855 40.2691 143.173 39.1851 148.517 38.7677C151.188 38.559 153.609 38.5175 155.678 38.6887C157.751 38.8602 159.449 39.2435 160.689 39.8685C162.035 40.5473 164.514 41.1645 167.749 41.7154C170.998 42.2686 175.05 42.7611 179.574 43.1756C188.623 44.0046 199.576 44.5235 209.796 44.5908C220.01 44.6582 229.512 44.2748 235.65 43.2939C237.186 43.0485 238.518 42.7645 239.602 42.4383C240.68 42.114 241.54 41.7401 242.109 41.301C242.685 40.8573 243.02 40.2947 242.873 39.629C242.737 39.0126 242.203 38.4192 241.37 37.8329C240.08 36.9237 239.684 36.1753 239.751 35.5883C239.822 34.9827 240.403 34.3333 241.626 33.6794C244.038 32.3906 248.485 31.3274 254 30.4859C265.003 28.8071 280.056 28.0373 291.001 28.0014L291.356 28.0003L291.339 27.6454L290.633 12.8334Z" fill="#6DDAFC" stroke="black" stroke-width="0.679688"/>
</svg>
